# xmcd
#
# Track frame offsets:
#	150
#	27102
#	46453
#	66664
#	88539
#
# Disc length: 1447 seconds
#
# Revision: 1
# Processed by: cddbd v1.5.2PL0 Copyright (c) Steve Scherf et al.
# Submitted via: EasyCDDAExtractor 15.3.0.1
#
DISCID=3e05a505
DTITLE=Whitney Houston - I Will Always Love You - The Best Of Whitney Houston 
DTITLE=CD 2
DYEAR=2012
DGENRE=Pop
TTITLE0=Hold Me (With Teddy Pendergrass)
TTITLE1=If You Say My Eyes Are Beautiful (With Jermaine Jackson)
TTITLE2=I Know Him So Well (With Cissy Houston)
TTITLE3=It Isn't, It Wasn't, It Ain't Never Gonna Be (With Aretha Franklin)
TTITLE4=Count On Me (With Cece Winans)
EXTD=
EXTT0=
EXTT1=
EXTT2=
EXTT3=
EXTT4=
PLAYORDER=
